<?xml version="1.0" encoding="UTF-8"?>
<svg width="28px" height="28px" viewBox="0 0 28 28" version="1.1" xmlns="http://www.w3.org/2000/svg" xmlns:xlink="http://www.w3.org/1999/xlink">
    <!-- Generator: Sketch 61.2 (89653) - https://sketch.com -->
    <title>Artboard</title>
    <desc>Created with Sketch.</desc>
    <g id="Artboard" stroke="none" stroke-width="1" fill="none" fill-rule="evenodd">
        <g id="8673931_ic_fluent_sport_american_football_icon" transform="translate(14.000000, 14.000000) rotate(45.000000) translate(-14.000000, -14.000000) translate(4.000000, 4.000000)" fill="#C28932" fill-rule="nonzero">
            <path d="M19.3786,9.4997 C17.9489,14.2596 14.1795,18.0071 9.4064,19.4063 L0.59373,10.5936 C1.99287,5.82051 5.74038,2.05114 10.5003,0.62141 L19.3786,9.4997 Z M11.7197,7.21967 L7.21967,11.7197 C6.92678,12.0126 6.92678,12.4874 7.21967,12.7803 C7.51256,13.0732 7.98744,13.0732 8.2803,12.7803 L12.7803,8.2803 C13.0732,7.98744 13.0732,7.51256 12.7803,7.21967 C12.4874,6.92678 12.0126,6.92678 11.7197,7.21967 Z" id="Shape"></path>
            <path d="M0.19916,12.3203 L7.67968,19.8008 C6.88925,19.9318 6.07758,20 5.25,20 L4.25,20 C1.90279,20 0,18.0972 0,15.75 L0,14.75 C0,13.9224 0.06816,13.1107 0.19916,12.3203 Z" id="Path"></path>
            <path d="M12.2169,0.21669 L19.7833,7.78314 C19.9258,6.96012 20,6.11373 20,5.25 L20,4.25 C20,1.90279 18.0972,0 15.75,0 L14.75,0 C13.8863,0 13.0399,0.07424 12.2169,0.21669 Z" id="Path"></path>
        </g>
    </g>
</svg>