<svg width="1024" height="1024" viewBox="0 0 1024 1024" fill="none" xmlns="http://www.w3.org/2000/svg">
<rect width="1024" height="1024" fill="#5C33F6"/>
<rect width="1024" height="1024" fill="url(#paint0_linear_1_4)"/>
<rect width="1024" height="1024" fill="#2445FF"/>
<path d="M788.61 402.138C796.56 315.427 782.748 247.861 780.156 245.282L778.602 243.728C776.188 241.227 708.547 227.507 621.913 235.444L788.61 402.138Z" fill="white"/>
<path d="M236.57 616.692C226.905 700.398 238.979 766.656 247.78 775.637L248.297 776.154C257.267 784.955 323.536 797.204 407.242 787.378L236.57 616.692Z" fill="white"/>
<path d="M782.741 446.576L577.39 241.314C503.874 254.166 422.769 284.537 358.057 349.251C291.449 415.86 258.135 498.427 243.305 573.031L450.901 780.627C525.62 765.795 608.112 732.488 674.725 665.864C739.427 601.153 769.802 520.179 782.746 446.575L782.741 446.576ZM575.479 502.316C580.315 507.144 580.315 515.08 575.479 519.918C570.659 524.746 562.705 524.746 557.89 519.918L543.562 505.589L505.076 544.166L519.4 558.533C524.228 563.357 524.228 571.125 519.4 576.131C514.402 580.959 506.635 580.959 501.803 576.131L487.474 561.633L448.827 600.293L463.151 614.621C467.975 619.441 467.975 627.395 463.151 632.21C458.314 637.038 450.373 637.038 445.549 632.21L431.225 617.895L416.211 632.9C409.303 639.803 398.084 639.803 391.189 632.9C384.281 626.005 384.112 614.612 391.189 607.704L406.021 592.699L391.697 578.371C386.873 573.542 386.873 565.597 391.697 560.769C396.703 555.945 404.475 555.945 409.299 560.769L423.623 575.097L462.282 536.572L447.953 522.244C443.125 517.333 443.125 509.566 447.953 504.642C452.79 499.814 460.727 499.814 465.564 504.642L479.888 519.053L518.37 480.398L504.046 466.074C499.222 461.246 499.222 453.301 504.046 448.472C509.052 443.549 516.81 443.635 521.643 448.472L535.971 462.796L574.631 424.31L560.302 409.9C555.465 405.072 555.296 397.222 560.128 392.298C565.139 387.47 573.075 387.47 577.904 392.385L592.045 406.709L611.553 387.214C618.448 380.311 629.841 380.311 636.749 387.214C643.644 394.204 643.644 405.502 636.749 412.41L617.25 431.731L631.578 446.142C636.398 451.061 636.398 458.915 631.739 463.83C626.733 468.658 618.804 468.658 613.968 463.743L599.64 449.419L561.154 487.987L575.479 502.316Z" fill="white"/>
<defs>
<linearGradient id="paint0_linear_1_4" x1="512" y1="0" x2="512" y2="1024" gradientUnits="userSpaceOnUse">
<stop stop-color="#111D5E"/>
<stop offset="1" stop-color="#080D2B"/>
</linearGradient>
</defs>
</svg>
